<svg width="28" height="45" viewBox="0 0 28 45" fill="none" xmlns="http://www.w3.org/2000/svg">
<path d="M13.5965 27.1867C6.09849 27.1867 0 21.0887 0 13.5932C0 6.09769 6.09849 0 13.5965 0C21.0945 0 27.1934 6.09699 27.1934 13.5932C27.1934 21.0894 21.0938 27.1867 13.5965 27.1867ZM13.5965 1.88764C7.14043 1.88764 1.88811 7.13868 1.88811 13.5932C1.88811 20.0477 7.14043 25.2987 13.5965 25.2987C20.0526 25.2987 25.3049 20.0477 25.3049 13.5932C25.3049 7.13868 20.0526 1.88764 13.5965 1.88764Z" fill="black"/>
<path d="M13.5965 45C6.09849 45 0 38.903 0 31.4082C0 23.9134 6.09849 17.8147 13.5965 17.8147C21.0945 17.8147 27.1934 23.9117 27.1934 31.4079C27.1934 38.9041 21.0938 45 13.5965 45ZM13.5965 19.701C7.14043 19.701 1.88811 24.952 1.88811 31.4065C1.88811 37.861 7.14043 43.112 13.5965 43.112C20.0526 43.112 25.3053 37.8638 25.3053 31.4082C25.3053 24.9527 20.0526 19.7023 13.5965 19.7023V19.701Z" fill="black"/>
</svg>
